<?xml version="1.0" standalone="no"?>
<!DOCTYPE svg PUBLIC "-//W3C//DTD SVG 20010904//EN"
 "http://www.w3.org/TR/2001/REC-SVG-20010904/DTD/svg10.dtd">
<svg version="1.0" xmlns="http://www.w3.org/2000/svg"
 width="40.000000pt" height="40.000000pt" viewBox="0 0 400.000000 400.000000"
 preserveAspectRatio="xMidYMid meet">

<g transform="translate(0.000000,440.000000) scale(0.100000,-0.100000)"
fill="#eb6383" stroke="none">
<path d="M1860 3509 c-174 -16 -370 -71 -526 -148 -97 -48 -288 -181 -370
-258 -188 -178 -352 -456 -414 -704 -76 -302 -62 -605 41 -894 78 -221 234
-450 411 -605 220 -192 432 -297 718 -356 106 -22 347 -29 466 -14 358 45 693
220 927 485 213 241 330 497 371 810 20 147 20 227 1 376 -41 335 -177 618
-412 862 -80 83 -120 116 -246 201 -210 143 -437 222 -707 246 -126 11 -124
11 -260 -1z m375 -124 c188 -32 339 -89 500 -188 263 -163 480 -433 574 -715
63 -185 81 -292 81 -470 -1 -284 -80 -537 -248 -788 -71 -106 -254 -288 -358
-357 -161 -106 -370 -191 -548 -222 -106 -19 -366 -19 -471 -1 -177 31 -377
111 -531 211 -115 75 -321 280 -393 390 -174 267 -252 581 -222 896 32 345
159 617 401 860 316 318 763 459 1215 384z"/>
<path d="M2144 3038 c-51 -27 -125 -88 -119 -98 3 -4 16 -11 29 -14 20 -5 40
4 91 41 63 46 80 75 51 86 -8 3 -31 -4 -52 -15z"/>
<path d="M1787 3043 c-14 -13 -5 -23 60 -73 54 -41 72 -50 93 -45 37 10 37 12
-1 51 -52 55 -130 89 -152 67z"/>
<path d="M1877 2876 c-88 -36 -127 -73 -165 -155 -21 -45 -24 -64 -20 -120 3
-36 12 -80 21 -96 14 -28 14 -32 -4 -54 l-19 -23 -63 16 c-114 32 -162 38
-229 33 -183 -15 -319 -163 -354 -386 -14 -92 -14 -106 1 -183 43 -217 158
-339 345 -367 63 -10 87 -9 145 4 113 26 122 27 129 16 5 -8 108 -11 333 -11
285 0 327 2 337 16 11 14 16 14 51 0 78 -29 148 -38 221 -26 191 31 302 144
345 354 20 98 14 201 -17 301 -34 107 -114 201 -214 251 -49 25 -66 28 -155
29 -77 0 -115 -5 -167 -23 -82 -27 -90 -27 -113 -2 -17 19 -17 21 0 60 28 62
24 162 -8 226 -71 140 -248 202 -400 140z m-340 -470 c108 -23 279 -115 398
-214 27 -23 56 -42 65 -42 8 0 38 18 65 41 123 100 293 191 401 215 253 56
433 -108 434 -396 0 -147 -37 -247 -122 -326 -26 -24 -69 -54 -95 -65 -60 -25
-168 -28 -247 -5 -89 26 -238 108 -342 187 l-94 71 -101 -76 c-116 -88 -278
-171 -374 -191 -119 -25 -221 2 -304 80 -83 77 -121 180 -121 326 0 241 136
406 335 408 22 0 68 -6 102 -13z"/>
<path d="M1343 2324 c-124 -60 -181 -177 -171 -353 8 -137 64 -233 165 -282
39 -19 56 -21 126 -16 133 8 266 73 449 219 l88 70 96 -76 c220 -174 406 -244
544 -206 148 41 231 266 170 461 -27 88 -69 142 -136 175 -81 40 -127 41 -231
9 -118 -37 -259 -120 -379 -222 -28 -24 -56 -43 -63 -43 -6 0 -47 28 -91 63
-122 97 -257 173 -356 202 -107 31 -145 31 -211 -1z"/>
<path d="M1688 1514 c-7 -6 30 -113 45 -132 7 -9 69 -12 270 -10 280 3 261 -1
285 58 5 14 14 37 20 52 6 14 8 29 5 32 -8 8 -618 8 -625 0z"/>
<path d="M1750 1327 c0 -7 11 -37 25 -65 14 -29 25 -57 25 -62 0 -7 67 -9 196
-8 l196 3 28 67 c16 36 26 69 23 72 -4 3 -116 6 -250 6 -194 0 -243 -3 -243
-13z"/>
<path d="M1830 1151 c0 -19 44 -87 84 -128 59 -63 116 -59 179 11 24 26 77
111 77 122 0 2 -76 4 -170 4 -100 0 -170 -4 -170 -9z"/>
</g>
</svg>
