<!-- <svg version="1.0" xmlns="http://www.w3.org/2000/svg" width="700.000000pt" height="434.000000pt" viewBox="0 0 700.000000 434.000000" preserveAspectRatio="xMidYMid meet"> -->

 <svg version="1.0" xmlns="http://www.w3.org/2000/svg" width="70.000000pt" height="59.000000pt" viewBox="0 0 700.000000 434.000000" preserveAspectRatio="xMidYMid meet">


<metadata>
Created by potrace 1.12, written by Peter Selinger 2001-2015
</metadata>
<g transform="translate(0.000000,434.000000) scale(0.100000,-0.100000)" fill="#000000" stroke="none">
<path d="M2935 3979 c-178 -32 -296 -70 -450 -146 -285 -142 -521 -372 -668
-652 -119 -226 -177 -460 -177 -713 0 -410 156 -785 450 -1078 245 -245 531
-386 879 -435 444 -63 917 91 1245 405 313 299 476 678 476 1105 0 253 -51
470 -162 690 -221 438 -623 733 -1113 819 -99 18 -393 20 -480 5z m770 -319
c146 -18 207 -39 316 -111 45 -30 61 -50 90 -105 33 -65 34 -72 34 -179 0
-186 -54 -311 -210 -486 -130 -145 -385 -328 -505 -362 l-25 -8 23 -17 c119
-87 147 -139 145 -266 -1 -49 -7 -94 -13 -100 -5 -5 -10 -18 -10 -27 0 -9 -15
-46 -34 -83 -105 -204 -314 -363 -599 -456 -131 -42 -185 -51 -352 -57 -161
-5 -195 2 -271 58 -133 98 -134 275 -2 614 154 398 429 830 716 1127 65 68
100 79 168 53 48 -18 110 -73 123 -109 13 -33 -3 -60 -98 -175 -141 -169 -367
-469 -359 -476 5 -6 156 22 253 47 193 49 382 157 539 307 123 119 175 214
205 377 17 89 -21 160 -108 202 -52 25 -64 27 -186 26 -92 -1 -148 -6 -190
-18 -33 -10 -76 -22 -96 -27 -71 -17 -225 -81 -289 -119 -142 -86 -184 -92
-262 -44 -83 52 -77 132 13 200 80 60 254 132 395 164 82 19 128 27 284 50 75
10 220 11 305 0z"></path>
<path d="M2945 2319 c-184 -43 -261 -65 -270 -78 -5 -8 -25 -40 -43 -70 -30
-51 -44 -80 -110 -221 -30 -63 -70 -209 -68 -246 2 -41 44 -101 80 -114 70
-24 190 -8 311 43 125 53 282 179 345 277 68 107 96 226 69 297 -35 94 -174
144 -314 112z"></path>
</g>
</svg>